# xmcd
#
# Track frame offsets:
#	150
#	15869
#	33260
#	55186
#	76578
#	92409
#	109874
#	128568
#	145989
#	163757
#	184445
#	203252
#
# Disc length: 2846 seconds
#
# Revision: 2
# Processed by: cddbd v1.5.2PL0 Copyright (c) Steve Scherf et al.
# Submitted via: EZCDAudioConverter 8.0.2.1
#
DISCID=880b1c0c
DTITLE=Bảo Thy - Vol 02. Kí Ức Của Mưa
DYEAR=2012
DGENRE=World Pop
TTITLE0=Bảo Thy - Kí Ức Của Mưa
TTITLE1=Bảo Thy - Chỉ em với mưa
TTITLE2=Bảo Thy - Sống trong quá khứ
TTITLE3=Bảo Thy - Em yêu anh nhiều lắm
TTITLE4=Bảo Thy - Cô đơn tìm đến
TTITLE5=Bảo Thy - Ích kỷ
TTITLE6=Bảo Thy - Em muốn chia tay
TTITLE7=Bảo Thy - Tin vào một lời hứa
TTITLE8=Bảo Thy, Quang Vinh - Những hạt nắng sau mưa
TTITLE9=Bảo Thy - Ngốc nghếch
TTITLE10=Bảo Thy - Lật lại ký ức
TTITLE11=Bảo Thy - Ánh mắt ấm áp
EXTD=
EXTT0=
EXTT1=
EXTT2=
EXTT3=
EXTT4=
EXTT5=
EXTT6=
EXTT7=
EXTT8=
EXTT9=
EXTT10=
EXTT11=
PLAYORDER=
